<svg width="240" height="240" viewBox="0 0 240 240" fill="none" xmlns="http://www.w3.org/2000/svg">
<rect x="80.5" y="0.5" width="19" height="19" fill="white"/>
<rect x="80.5" y="0.5" width="19" height="19" stroke="#EDEDED"/>
<rect x="100.5" y="0.5" width="19" height="19" fill="white"/>
<rect x="100.5" y="0.5" width="19" height="19" stroke="#EDEDED"/>
<rect x="120.5" y="0.5" width="19" height="19" fill="white"/>
<rect x="120.5" y="0.5" width="19" height="19" stroke="#EDEDED"/>
<rect x="140.5" y="0.5" width="19" height="19" fill="white"/>
<rect x="140.5" y="0.5" width="19" height="19" stroke="#EDEDED"/>
<rect x="80.5" y="20.5" width="19" height="19" fill="white"/>
<rect x="80.5" y="20.5" width="19" height="19" stroke="#EDEDED"/>
<rect x="100.5" y="20.5" width="19" height="19" fill="white"/>
<rect x="100.5" y="20.5" width="19" height="19" stroke="#EDEDED"/>
<rect x="120.5" y="20.5" width="19" height="19" fill="white"/>
<rect x="120.5" y="20.5" width="19" height="19" stroke="#EDEDED"/>
<rect x="140.5" y="20.5" width="19" height="19" fill="white"/>
<rect x="140.5" y="20.5" width="19" height="19" stroke="#EDEDED"/>
<rect x="80.5" y="40.5" width="19" height="19" fill="white"/>
<rect x="80.5" y="40.5" width="19" height="19" stroke="#EDEDED"/>
<rect x="100.5" y="40.5" width="19" height="19" fill="white"/>
<rect x="100.5" y="40.5" width="19" height="19" stroke="#EDEDED"/>
<rect x="120.5" y="40.5" width="19" height="19" fill="white"/>
<rect x="120.5" y="40.5" width="19" height="19" stroke="#EDEDED"/>
<rect x="140.5" y="40.5" width="19" height="19" fill="white"/>
<rect x="140.5" y="40.5" width="19" height="19" stroke="#EDEDED"/>
<rect x="80.5" y="60.5" width="19" height="19" fill="white"/>
<rect x="80.5" y="60.5" width="19" height="19" stroke="#EDEDED"/>
<rect x="100.5" y="60.5" width="19" height="19" fill="white"/>
<rect x="100.5" y="60.5" width="19" height="19" stroke="#EDEDED"/>
<rect x="120.5" y="60.5" width="19" height="19" fill="white"/>
<rect x="120.5" y="60.5" width="19" height="19" stroke="#EDEDED"/>
<rect x="140.5" y="60.5" width="19" height="19" fill="white"/>
<rect x="140.5" y="60.5" width="19" height="19" stroke="#EDEDED"/>
<rect x="80.5" y="80.5" width="19" height="19" fill="white"/>
<rect x="80.5" y="80.5" width="19" height="19" stroke="#EDEDED"/>
<rect x="100.5" y="80.5" width="19" height="19" fill="white"/>
<rect x="100.5" y="80.5" width="19" height="19" stroke="#EDEDED"/>
<rect x="120.5" y="80.5" width="19" height="19" fill="white"/>
<rect x="120.5" y="80.5" width="19" height="19" stroke="#EDEDED"/>
<rect x="140.5" y="80.5" width="19" height="19" fill="white"/>
<rect x="140.5" y="80.5" width="19" height="19" stroke="#EDEDED"/>
<rect x="80.5" y="100.5" width="19" height="19" fill="white"/>
<rect x="80.5" y="100.5" width="19" height="19" stroke="#EDEDED"/>
<rect x="100.5" y="100.5" width="19" height="19" fill="white"/>
<rect x="100.5" y="100.5" width="19" height="19" stroke="#EDEDED"/>
<rect x="120.5" y="100.5" width="19" height="19" fill="white"/>
<rect x="120.5" y="100.5" width="19" height="19" stroke="#EDEDED"/>
<rect x="140.5" y="100.5" width="19" height="19" fill="white"/>
<rect x="140.5" y="100.5" width="19" height="19" stroke="#EDEDED"/>
<rect x="80.5" y="120.5" width="19" height="19" fill="white"/>
<rect x="80.5" y="120.5" width="19" height="19" stroke="#EDEDED"/>
<rect x="100.5" y="120.5" width="19" height="19" fill="white"/>
<rect x="100.5" y="120.5" width="19" height="19" stroke="#EDEDED"/>
<rect x="120.5" y="120.5" width="19" height="19" fill="white"/>
<rect x="120.5" y="120.5" width="19" height="19" stroke="#EDEDED"/>
<rect x="140.5" y="120.5" width="19" height="19" fill="white"/>
<rect x="140.5" y="120.5" width="19" height="19" stroke="#EDEDED"/>
<rect x="80.5" y="140.5" width="19" height="19" fill="white"/>
<rect x="80.5" y="140.5" width="19" height="19" stroke="#EDEDED"/>
<rect x="100.5" y="140.5" width="19" height="19" fill="white"/>
<rect x="100.5" y="140.5" width="19" height="19" stroke="#EDEDED"/>
<rect x="120.5" y="140.5" width="19" height="19" fill="white"/>
<rect x="120.5" y="140.5" width="19" height="19" stroke="#EDEDED"/>
<rect x="140.5" y="140.5" width="19" height="19" fill="white"/>
<rect x="140.5" y="140.5" width="19" height="19" stroke="#EDEDED"/>
<rect x="80.5" y="160.5" width="19" height="19" fill="white"/>
<rect x="80.5" y="160.5" width="19" height="19" stroke="#EDEDED"/>
<rect x="100.5" y="160.5" width="19" height="19" fill="white"/>
<rect x="100.5" y="160.5" width="19" height="19" stroke="#EDEDED"/>
<rect x="120.5" y="160.5" width="19" height="19" fill="white"/>
<rect x="120.5" y="160.5" width="19" height="19" stroke="#EDEDED"/>
<rect x="140.5" y="160.5" width="19" height="19" fill="white"/>
<rect x="140.5" y="160.5" width="19" height="19" stroke="#EDEDED"/>
<rect x="80.5" y="180.5" width="19" height="19" fill="white"/>
<rect x="80.5" y="180.5" width="19" height="19" stroke="#EDEDED"/>
<rect x="100.5" y="180.5" width="19" height="19" fill="white"/>
<rect x="100.5" y="180.5" width="19" height="19" stroke="#EDEDED"/>
<rect x="120.5" y="180.5" width="19" height="19" fill="white"/>
<rect x="120.5" y="180.5" width="19" height="19" stroke="#EDEDED"/>
<rect x="140.5" y="180.5" width="19" height="19" fill="white"/>
<rect x="140.5" y="180.5" width="19" height="19" stroke="#EDEDED"/>
<rect x="80.5" y="200.5" width="19" height="19" fill="white"/>
<rect x="80.5" y="200.5" width="19" height="19" stroke="#EDEDED"/>
<rect x="100.5" y="200.5" width="19" height="19" fill="white"/>
<rect x="100.5" y="200.5" width="19" height="19" stroke="#EDEDED"/>
<rect x="120.5" y="200.5" width="19" height="19" fill="white"/>
<rect x="120.5" y="200.5" width="19" height="19" stroke="#EDEDED"/>
<rect x="140.5" y="200.5" width="19" height="19" fill="white"/>
<rect x="140.5" y="200.5" width="19" height="19" stroke="#EDEDED"/>
<rect x="80.5" y="220.5" width="19" height="19" fill="white"/>
<rect x="80.5" y="220.5" width="19" height="19" stroke="#EDEDED"/>
<rect x="100.5" y="220.5" width="19" height="19" fill="white"/>
<rect x="100.5" y="220.5" width="19" height="19" stroke="#EDEDED"/>
<rect x="120.5" y="220.5" width="19" height="19" fill="white"/>
<rect x="120.5" y="220.5" width="19" height="19" stroke="#EDEDED"/>
<rect x="140.5" y="220.5" width="19" height="19" fill="white"/>
<rect x="140.5" y="220.5" width="19" height="19" stroke="#EDEDED"/>
<rect x="0.5" y="0.5" width="19" height="19" fill="white"/>
<rect x="0.5" y="0.5" width="19" height="19" stroke="#EDEDED"/>
<rect x="20.5" y="0.5" width="19" height="19" fill="white"/>
<rect x="20.5" y="0.5" width="19" height="19" stroke="#EDEDED"/>
<rect x="40.5" y="0.5" width="19" height="19" fill="white"/>
<rect x="40.5" y="0.5" width="19" height="19" stroke="#EDEDED"/>
<rect x="60.5" y="0.5" width="19" height="19" fill="white"/>
<rect x="60.5" y="0.5" width="19" height="19" stroke="#EDEDED"/>
<rect x="0.5" y="20.5" width="19" height="19" fill="white"/>
<rect x="0.5" y="20.5" width="19" height="19" stroke="#EDEDED"/>
<rect x="20.5" y="20.5" width="19" height="19" fill="white"/>
<rect x="20.5" y="20.5" width="19" height="19" stroke="#EDEDED"/>
<rect x="40.5" y="20.5" width="19" height="19" fill="white"/>
<rect x="40.5" y="20.5" width="19" height="19" stroke="#EDEDED"/>
<rect x="60.5" y="20.5" width="19" height="19" fill="white"/>
<rect x="60.5" y="20.5" width="19" height="19" stroke="#EDEDED"/>
<rect x="0.5" y="40.5" width="19" height="19" fill="white"/>
<rect x="0.5" y="40.5" width="19" height="19" stroke="#EDEDED"/>
<rect x="20.5" y="40.5" width="19" height="19" fill="white"/>
<rect x="20.5" y="40.5" width="19" height="19" stroke="#EDEDED"/>
<rect x="40.5" y="40.5" width="19" height="19" fill="white"/>
<rect x="40.5" y="40.5" width="19" height="19" stroke="#EDEDED"/>
<rect x="60.5" y="40.5" width="19" height="19" fill="white"/>
<rect x="60.5" y="40.5" width="19" height="19" stroke="#EDEDED"/>
<rect x="0.5" y="60.5" width="19" height="19" fill="white"/>
<rect x="0.5" y="60.5" width="19" height="19" stroke="#EDEDED"/>
<rect x="20.5" y="60.5" width="19" height="19" fill="white"/>
<rect x="20.5" y="60.5" width="19" height="19" stroke="#EDEDED"/>
<rect x="40.5" y="60.5" width="19" height="19" fill="white"/>
<rect x="40.5" y="60.5" width="19" height="19" stroke="#EDEDED"/>
<rect x="60.5" y="60.5" width="19" height="19" fill="white"/>
<rect x="60.5" y="60.5" width="19" height="19" stroke="#EDEDED"/>
<rect x="0.5" y="80.5" width="19" height="19" fill="white"/>
<rect x="0.5" y="80.5" width="19" height="19" stroke="#EDEDED"/>
<rect x="20.5" y="80.5" width="19" height="19" fill="white"/>
<rect x="20.5" y="80.5" width="19" height="19" stroke="#EDEDED"/>
<rect x="40.5" y="80.5" width="19" height="19" fill="white"/>
<rect x="40.5" y="80.5" width="19" height="19" stroke="#EDEDED"/>
<rect x="60.5" y="80.5" width="19" height="19" fill="white"/>
<rect x="60.5" y="80.5" width="19" height="19" stroke="#EDEDED"/>
<rect x="0.5" y="100.5" width="19" height="19" fill="white"/>
<rect x="0.5" y="100.5" width="19" height="19" stroke="#EDEDED"/>
<rect x="20.5" y="100.5" width="19" height="19" fill="white"/>
<rect x="20.5" y="100.5" width="19" height="19" stroke="#EDEDED"/>
<rect x="40.5" y="100.5" width="19" height="19" fill="white"/>
<rect x="40.5" y="100.5" width="19" height="19" stroke="#EDEDED"/>
<rect x="60.5" y="100.5" width="19" height="19" fill="white"/>
<rect x="60.5" y="100.5" width="19" height="19" stroke="#EDEDED"/>
<rect x="0.5" y="120.5" width="19" height="19" fill="white"/>
<rect x="0.5" y="120.5" width="19" height="19" stroke="#EDEDED"/>
<rect x="20.5" y="120.5" width="19" height="19" fill="white"/>
<rect x="20.5" y="120.5" width="19" height="19" stroke="#EDEDED"/>
<rect x="40.5" y="120.5" width="19" height="19" fill="white"/>
<rect x="40.5" y="120.5" width="19" height="19" stroke="#EDEDED"/>
<rect x="60.5" y="120.5" width="19" height="19" fill="white"/>
<rect x="60.5" y="120.5" width="19" height="19" stroke="#EDEDED"/>
<rect x="0.5" y="140.5" width="19" height="19" fill="white"/>
<rect x="0.5" y="140.5" width="19" height="19" stroke="#EDEDED"/>
<rect x="20.5" y="140.5" width="19" height="19" fill="white"/>
<rect x="20.5" y="140.5" width="19" height="19" stroke="#EDEDED"/>
<rect x="40.5" y="140.5" width="19" height="19" fill="white"/>
<rect x="40.5" y="140.5" width="19" height="19" stroke="#EDEDED"/>
<rect x="60.5" y="140.5" width="19" height="19" fill="white"/>
<rect x="60.5" y="140.5" width="19" height="19" stroke="#EDEDED"/>
<rect x="0.5" y="160.5" width="19" height="19" fill="white"/>
<rect x="0.5" y="160.5" width="19" height="19" stroke="#EDEDED"/>
<rect x="20.5" y="160.5" width="19" height="19" fill="white"/>
<rect x="20.5" y="160.5" width="19" height="19" stroke="#EDEDED"/>
<rect x="40.5" y="160.5" width="19" height="19" fill="white"/>
<rect x="40.5" y="160.5" width="19" height="19" stroke="#EDEDED"/>
<rect x="60.5" y="160.5" width="19" height="19" fill="white"/>
<rect x="60.5" y="160.5" width="19" height="19" stroke="#EDEDED"/>
<rect x="0.5" y="180.5" width="19" height="19" fill="white"/>
<rect x="0.5" y="180.5" width="19" height="19" stroke="#EDEDED"/>
<rect x="20.5" y="180.5" width="19" height="19" fill="white"/>
<rect x="20.5" y="180.5" width="19" height="19" stroke="#EDEDED"/>
<rect x="40.5" y="180.5" width="19" height="19" fill="white"/>
<rect x="40.5" y="180.5" width="19" height="19" stroke="#EDEDED"/>
<rect x="60.5" y="180.5" width="19" height="19" fill="white"/>
<rect x="60.5" y="180.5" width="19" height="19" stroke="#EDEDED"/>
<rect x="0.5" y="200.5" width="19" height="19" fill="white"/>
<rect x="0.5" y="200.5" width="19" height="19" stroke="#EDEDED"/>
<rect x="20.5" y="200.5" width="19" height="19" fill="white"/>
<rect x="20.5" y="200.5" width="19" height="19" stroke="#EDEDED"/>
<rect x="40.5" y="200.5" width="19" height="19" fill="white"/>
<rect x="40.5" y="200.5" width="19" height="19" stroke="#EDEDED"/>
<rect x="60.5" y="200.5" width="19" height="19" fill="white"/>
<rect x="60.5" y="200.5" width="19" height="19" stroke="#EDEDED"/>
<rect x="0.5" y="220.5" width="19" height="19" fill="white"/>
<rect x="0.5" y="220.5" width="19" height="19" stroke="#EDEDED"/>
<rect x="20.5" y="220.5" width="19" height="19" fill="white"/>
<rect x="20.5" y="220.5" width="19" height="19" stroke="#EDEDED"/>
<rect x="40.5" y="220.5" width="19" height="19" fill="white"/>
<rect x="40.5" y="220.5" width="19" height="19" stroke="#EDEDED"/>
<rect x="60.5" y="220.5" width="19" height="19" fill="white"/>
<rect x="60.5" y="220.5" width="19" height="19" stroke="#EDEDED"/>
<rect x="160.5" y="0.5" width="19" height="19" fill="white"/>
<rect x="160.5" y="0.5" width="19" height="19" stroke="#EDEDED"/>
<rect x="180.5" y="0.5" width="19" height="19" fill="white"/>
<rect x="180.5" y="0.5" width="19" height="19" stroke="#EDEDED"/>
<rect x="200.5" y="0.5" width="19" height="19" fill="white"/>
<rect x="200.5" y="0.5" width="19" height="19" stroke="#EDEDED"/>
<rect x="220.5" y="0.5" width="19" height="19" fill="white"/>
<rect x="220.5" y="0.5" width="19" height="19" stroke="#EDEDED"/>
<rect x="160.5" y="20.5" width="19" height="19" fill="white"/>
<rect x="160.5" y="20.5" width="19" height="19" stroke="#EDEDED"/>
<rect x="180.5" y="20.5" width="19" height="19" fill="white"/>
<rect x="180.5" y="20.5" width="19" height="19" stroke="#EDEDED"/>
<rect x="200.5" y="20.5" width="19" height="19" fill="white"/>
<rect x="200.5" y="20.5" width="19" height="19" stroke="#EDEDED"/>
<rect x="220.5" y="20.5" width="19" height="19" fill="white"/>
<rect x="220.5" y="20.5" width="19" height="19" stroke="#EDEDED"/>
<rect x="160.5" y="40.5" width="19" height="19" fill="white"/>
<rect x="160.5" y="40.5" width="19" height="19" stroke="#EDEDED"/>
<rect x="180.5" y="40.5" width="19" height="19" fill="white"/>
<rect x="180.5" y="40.5" width="19" height="19" stroke="#EDEDED"/>
<rect x="200.5" y="40.5" width="19" height="19" fill="white"/>
<rect x="200.5" y="40.5" width="19" height="19" stroke="#EDEDED"/>
<rect x="220.5" y="40.5" width="19" height="19" fill="white"/>
<rect x="220.5" y="40.5" width="19" height="19" stroke="#EDEDED"/>
<rect x="160.5" y="60.5" width="19" height="19" fill="white"/>
<rect x="160.5" y="60.5" width="19" height="19" stroke="#EDEDED"/>
<rect x="180.5" y="60.5" width="19" height="19" fill="white"/>
<rect x="180.5" y="60.5" width="19" height="19" stroke="#EDEDED"/>
<rect x="200.5" y="60.5" width="19" height="19" fill="white"/>
<rect x="200.5" y="60.5" width="19" height="19" stroke="#EDEDED"/>
<rect x="220.5" y="60.5" width="19" height="19" fill="white"/>
<rect x="220.5" y="60.5" width="19" height="19" stroke="#EDEDED"/>
<rect x="160.5" y="80.5" width="19" height="19" fill="white"/>
<rect x="160.5" y="80.5" width="19" height="19" stroke="#EDEDED"/>
<rect x="180.5" y="80.5" width="19" height="19" fill="white"/>
<rect x="180.5" y="80.5" width="19" height="19" stroke="#EDEDED"/>
<rect x="200.5" y="80.5" width="19" height="19" fill="white"/>
<rect x="200.5" y="80.5" width="19" height="19" stroke="#EDEDED"/>
<rect x="220.5" y="80.5" width="19" height="19" fill="white"/>
<rect x="220.5" y="80.5" width="19" height="19" stroke="#EDEDED"/>
<rect x="160.5" y="100.5" width="19" height="19" fill="white"/>
<rect x="160.5" y="100.5" width="19" height="19" stroke="#EDEDED"/>
<rect x="180.5" y="100.5" width="19" height="19" fill="white"/>
<rect x="180.5" y="100.5" width="19" height="19" stroke="#EDEDED"/>
<rect x="200.5" y="100.5" width="19" height="19" fill="white"/>
<rect x="200.5" y="100.5" width="19" height="19" stroke="#EDEDED"/>
<rect x="220.5" y="100.5" width="19" height="19" fill="white"/>
<rect x="220.5" y="100.5" width="19" height="19" stroke="#EDEDED"/>
<rect x="160.5" y="120.5" width="19" height="19" fill="white"/>
<rect x="160.5" y="120.5" width="19" height="19" stroke="#EDEDED"/>
<rect x="180.5" y="120.5" width="19" height="19" fill="white"/>
<rect x="180.5" y="120.5" width="19" height="19" stroke="#EDEDED"/>
<rect x="200.5" y="120.5" width="19" height="19" fill="white"/>
<rect x="200.5" y="120.5" width="19" height="19" stroke="#EDEDED"/>
<rect x="220.5" y="120.5" width="19" height="19" fill="white"/>
<rect x="220.5" y="120.5" width="19" height="19" stroke="#EDEDED"/>
<rect x="160.5" y="140.5" width="19" height="19" fill="white"/>
<rect x="160.5" y="140.5" width="19" height="19" stroke="#EDEDED"/>
<rect x="180.5" y="140.5" width="19" height="19" fill="white"/>
<rect x="180.5" y="140.5" width="19" height="19" stroke="#EDEDED"/>
<rect x="200.5" y="140.5" width="19" height="19" fill="white"/>
<rect x="200.5" y="140.5" width="19" height="19" stroke="#EDEDED"/>
<rect x="220.5" y="140.5" width="19" height="19" fill="white"/>
<rect x="220.5" y="140.5" width="19" height="19" stroke="#EDEDED"/>
<rect x="160.5" y="160.5" width="19" height="19" fill="white"/>
<rect x="160.5" y="160.5" width="19" height="19" stroke="#EDEDED"/>
<rect x="180.5" y="160.5" width="19" height="19" fill="white"/>
<rect x="180.5" y="160.5" width="19" height="19" stroke="#EDEDED"/>
<rect x="200.5" y="160.5" width="19" height="19" fill="white"/>
<rect x="200.5" y="160.5" width="19" height="19" stroke="#EDEDED"/>
<rect x="220.5" y="160.5" width="19" height="19" fill="white"/>
<rect x="220.5" y="160.5" width="19" height="19" stroke="#EDEDED"/>
<rect x="160.5" y="180.5" width="19" height="19" fill="white"/>
<rect x="160.5" y="180.5" width="19" height="19" stroke="#EDEDED"/>
<rect x="180.5" y="180.5" width="19" height="19" fill="white"/>
<rect x="180.5" y="180.5" width="19" height="19" stroke="#EDEDED"/>
<rect x="200.5" y="180.5" width="19" height="19" fill="white"/>
<rect x="200.5" y="180.5" width="19" height="19" stroke="#EDEDED"/>
<rect x="220.5" y="180.5" width="19" height="19" fill="white"/>
<rect x="220.5" y="180.5" width="19" height="19" stroke="#EDEDED"/>
<rect x="160.5" y="200.5" width="19" height="19" fill="white"/>
<rect x="160.5" y="200.5" width="19" height="19" stroke="#EDEDED"/>
<rect x="180.5" y="200.5" width="19" height="19" fill="white"/>
<rect x="180.5" y="200.5" width="19" height="19" stroke="#EDEDED"/>
<rect x="200.5" y="200.5" width="19" height="19" fill="white"/>
<rect x="200.5" y="200.5" width="19" height="19" stroke="#EDEDED"/>
<rect x="220.5" y="200.5" width="19" height="19" fill="white"/>
<rect x="220.5" y="200.5" width="19" height="19" stroke="#EDEDED"/>
<rect x="160.5" y="220.5" width="19" height="19" fill="white"/>
<rect x="160.5" y="220.5" width="19" height="19" stroke="#EDEDED"/>
<rect x="180.5" y="220.5" width="19" height="19" fill="white"/>
<rect x="180.5" y="220.5" width="19" height="19" stroke="#EDEDED"/>
<rect x="200.5" y="220.5" width="19" height="19" fill="white"/>
<rect x="200.5" y="220.5" width="19" height="19" stroke="#EDEDED"/>
<rect x="220.5" y="220.5" width="19" height="19" fill="white"/>
<rect x="220.5" y="220.5" width="19" height="19" stroke="#EDEDED"/>
</svg>
